<svg width="129" height="72" viewBox="0 0 129 72" fill="none" xmlns="http://www.w3.org/2000/svg">
<g id="Layer_1" clip-path="url(#clip0_1751_3106)">
<path id="Vector" fill-rule="evenodd" clip-rule="evenodd" d="M72.1394 0.253178C72.0548 0.136327 71.9312 0.051934 71.7945 0C68.1309 6.5307 65.3783 11.6981 63.5303 15.5088C63.758 15.9827 63.9858 16.4566 64.207 16.9305C64.656 17.8978 65.1246 18.8585 65.6061 19.8128C67.7275 14.8466 69.8618 8.6535 71.9962 1.22694C72.1849 0.707601 72.2305 0.389505 72.1394 0.253178ZM54.5503 0.253178C54.6348 0.136327 54.7585 0.051934 54.8951 0C59.0858 7.472 62.0857 13.1653 63.9077 17.0733C64.4868 18.3132 65.092 19.5467 65.7232 20.7671C66.5562 22.7666 67.2264 24.3765 67.7144 25.584C69.6341 28.6416 70.6102 30.284 72.1914 30.6216C72.8226 30.7774 73.3888 30.8098 73.9159 30.7255C76.4407 30.4074 78.6336 32.0498 79.5967 34.3738C80.1759 35.7695 79.7138 37.1977 78.6662 38.2494C78.549 38.3727 78.4189 38.4831 78.2887 38.5805C78.1586 38.7752 78.0154 38.97 77.8593 39.1712C77.4623 40.1515 77.9178 40.898 79.2388 41.4109C79.6553 41.6316 80.3255 41.8004 81.2496 41.9302C81.5814 41.9692 81.8222 42.0341 81.9719 42.125C82.076 42.1834 82.141 42.2873 82.1476 42.4106C82.1541 42.5339 82.102 42.6508 82.0109 42.7157C80.5468 42.9624 78.5555 42.2483 76.0503 40.554C75.1392 39.9762 74.3714 39.2621 73.7402 38.4182C72.9463 37.7755 72.4127 36.8991 72.0092 35.7631V35.7371L71.9832 35.6916C70.5581 32.1277 70.2783 31.0241 66.465 27.4601C65.1506 26.8434 64.3502 26.376 64.0769 26.0579C63.706 25.7203 63.4587 25.3763 63.3481 25.0192C62.6843 23.5975 62.0596 22.1563 61.4675 20.7022C59.216 15.5997 56.9644 9.10792 54.6999 1.24642C54.5177 0.727076 54.4657 0.40898 54.5568 0.272653L54.5503 0.253178ZM63.3481 21.3903C63.2765 21.3903 63.2049 21.3903 63.1333 21.3708L63.9728 19.2026C64.3111 19.4103 64.5324 19.7869 64.5324 20.2088C64.5324 20.8645 63.9988 21.3903 63.3481 21.3903ZM62.7234 21.215C62.385 21.0073 62.1637 20.6373 62.1637 20.2088C62.1637 19.5596 62.6973 19.0273 63.3481 19.0273C63.4196 19.0273 63.4912 19.0338 63.5628 19.0468L62.7234 21.215ZM55.0643 0.577766C55.0513 0.746551 55.1554 1.07763 55.5328 1.89559C57.7583 6.97863 60.0749 11.8799 62.4696 16.554C62.6193 16.2294 62.7234 16.0087 62.8861 15.71C62.8861 15.71 60.3352 10.6595 55.0643 0.577766ZM74.0135 32.0692C70.0571 34.0362 75.5947 40.6059 78.1326 37.1523C78.8809 36.1396 78.92 35.3346 78.51 34.6335C77.3517 32.8158 75.5362 31.2837 74.0135 32.0757V32.0692ZM71.7034 0.577766C71.7099 0.746551 71.6123 1.07763 71.2349 1.89559C69.0094 6.97863 66.6928 11.8799 64.2981 16.554C64.1485 16.2294 64.0443 16.0087 63.8817 15.71C63.8817 15.71 66.4325 10.6595 71.7034 0.577766ZM61.0575 20.5853L60.9664 20.7606C60.1335 22.7601 59.4697 24.37 58.9752 25.5775C57.0555 28.6351 56.0795 30.2775 54.4982 30.6151C53.8735 30.7709 53.2943 30.8034 52.7738 30.719C50.2424 30.4009 48.0495 32.0433 47.0864 34.3673C46.5073 35.7631 46.9693 37.1912 48.017 38.2429C48.8564 39.0868 50.0407 39.4893 51.225 39.3335C52.5525 38.9115 53.0991 38.4182 54.0427 38.7103C54.1273 38.7233 54.2054 38.6908 54.2639 38.6389C54.2965 38.8726 54.4266 39.0349 54.7194 39.1193C55.0123 39.1972 55.266 39.0414 55.4417 38.7947C55.6695 38.4766 55.4678 38.0936 55.201 37.9313C55.1034 37.8729 54.9797 37.8469 54.8105 37.8859C54.8821 37.6716 54.8431 37.5028 54.7064 37.386C54.4266 36.9056 54.5177 36.1915 54.7064 35.6852C56.1315 32.1212 56.4178 31.0176 60.2246 27.4536C61.5391 26.8369 62.3394 26.3695 62.6193 26.0514C62.847 25.8437 63.0292 25.6359 63.1594 25.4152C63.1138 25.3243 63.0748 25.2269 63.0422 25.1296C62.3785 23.7079 61.7538 22.2732 61.1681 20.8255L61.064 20.5918L61.0575 20.5853ZM52.6762 32.0692C51.1535 31.2837 49.3379 32.8093 48.1731 34.627C47.7632 35.3281 47.8022 36.1331 48.5506 37.1458C51.0949 40.5994 56.6261 34.0298 52.6762 32.0628V32.0692Z" fill="#B48100"/>
<g id="Group">
<path id="Vector_2" fill-rule="evenodd" clip-rule="evenodd" d="M36.6944 34.3998L37.3777 36.159L39.2648 36.2629L37.8006 37.4574L38.2822 39.2751L36.6944 38.2494L35.1066 39.2751L35.5882 37.4509L34.124 36.2629L36.0111 36.159L36.6944 34.3998Z" fill="#B48100"/>
<path id="Vector_3" fill-rule="evenodd" clip-rule="evenodd" d="M92.5463 34.3998L93.2296 36.159L95.1167 36.2629L93.6525 37.4574L94.1341 39.2751L92.5463 38.2494L90.965 39.2751L91.4466 37.4509L89.9824 36.2629L91.863 36.159L92.5463 34.3998Z" fill="#B48100"/>
<path id="Vector_4" fill-rule="evenodd" clip-rule="evenodd" d="M125.72 39.0609C101.982 46.6432 98.3832 24.4349 79.7529 28.8883C82.8569 29.2713 85.4663 31.3811 86.4814 34.3349C87.4966 37.2886 86.7352 40.554 84.5228 42.7547C86.7222 41.4758 88.1668 39.2167 88.4011 36.6914C88.6419 34.1661 87.6332 31.6732 85.7136 30.0114C99.1901 31.6083 104.298 47.9481 125.714 39.0609H125.72ZM104.63 35.6397C108.469 38.4896 124.588 40.8461 123.384 34.1012C123.137 32.7054 122.07 31.6862 120.983 32.4717C121.64 32.8418 121.204 33.6273 120.885 33.6532C120.482 33.7246 120.189 33.5234 120.085 33.0105C119.642 30.8293 124.406 29.8426 124.217 35.3411C123.996 41.9692 108.417 38.9765 104.63 35.6397Z" fill="#B48100"/>
<path id="Vector_5" fill-rule="evenodd" clip-rule="evenodd" d="M3.2793 39.0609C27.0243 46.6432 30.6163 24.4349 49.2466 28.8883C46.1426 29.2713 43.5332 31.3811 42.5181 34.3349C41.503 37.2886 42.2643 40.554 44.4768 42.7547C42.2773 41.4758 40.8262 39.2167 40.5919 36.6914C40.3577 34.1661 41.3598 31.6732 43.2794 30.0114C29.8029 31.6083 24.7012 47.9481 3.2793 39.0609ZM24.3693 35.6397C20.5301 38.4896 4.41156 40.8461 5.6154 34.1012C5.86268 32.7054 6.92987 31.6862 8.01658 32.4717C7.35935 32.8418 7.79534 33.6273 8.11419 33.6532C8.51764 33.7246 8.81047 33.5234 8.91459 33.0105C9.35708 30.8293 4.59376 29.8426 4.77597 35.3411C4.99721 41.9692 20.5756 38.9765 24.3628 35.6397H24.3693Z" fill="#B48100"/>
</g>
<path id="Vector_6" fill-rule="evenodd" clip-rule="evenodd" d="M30.2652 72H28.4497L28.749 71.5456V69.5331H27.5321V71.5456L27.838 72H26.0225L26.3218 71.5456V66.7417L26.0225 66.2808H27.838L27.5321 66.7417V68.7606H28.749V66.7417L28.4497 66.2808H30.2652L29.9594 66.7417V71.5456L30.2652 72ZM35.8419 71.5456L36.1803 72H34.3127L34.573 71.5456L34.4559 70.9029H33.2L33.0828 71.5456L33.3301 72H31.5081L31.853 71.5456L32.9657 66.2808H34.7227L35.8419 71.5456ZM33.3106 70.1239H34.3257L33.8182 67.2156L33.3106 70.1239ZM39.2322 72H37.4167L37.716 71.5456V66.7417L37.4167 66.2808H39.2322L38.9264 66.7417V71.5456L39.2322 72ZM43.091 70.046C43.039 69.8707 42.9739 69.7409 42.8958 69.6565C42.8177 69.5721 42.6811 69.5266 42.4793 69.5266H42.2841V71.5456L42.59 72H40.7809L41.0803 71.5456V66.7417L40.7809 66.2808H43.8719C44.1712 66.2808 44.386 66.3392 44.5161 66.4625C44.6463 66.5859 44.7048 66.7741 44.7048 67.0208V68.6697C44.7048 68.9034 44.6593 69.0917 44.5682 69.2215C44.4771 69.3578 44.3209 69.4422 44.1127 69.4877L44.8285 71.5456L45.2514 71.9935H43.3643L43.54 71.5391L43.0975 70.046H43.091ZM43.4945 67.5337C43.4945 67.3973 43.4554 67.2805 43.3708 67.1831C43.2862 67.0922 43.1561 67.0533 42.9739 67.0533H42.2841V68.7476H42.9739C43.1561 68.7476 43.2862 68.7022 43.3708 68.6113C43.4554 68.5204 43.4945 68.4036 43.4945 68.2607V67.5337ZM49.1167 67.4233C49.1167 67.3129 49.0842 67.2285 49.0191 67.1571C48.9476 67.0857 48.8564 67.0533 48.7263 67.0533H48.2643C48.1276 67.0533 48.03 67.0857 47.965 67.1571C47.8999 67.2221 47.8673 67.3129 47.8673 67.4233V70.8574C47.8673 70.9678 47.8999 71.0522 47.965 71.1236C48.03 71.195 48.1276 71.2275 48.2643 71.2275H48.7263C48.8499 71.2275 48.9476 71.195 49.0191 71.1236C49.0842 71.0522 49.1167 70.9678 49.1167 70.8574V69.7928L50.288 69.2475V71.2599C50.288 71.5131 50.223 71.6949 50.0928 71.8182C49.9627 71.9416 49.7479 72 49.4421 72H47.4964C47.1971 72 46.9824 71.9416 46.8522 71.8182C46.7221 71.6949 46.6635 71.5066 46.6635 71.2599V67.0273C46.6635 66.7741 46.7286 66.5924 46.8522 66.469C46.9824 66.3457 47.1906 66.2872 47.4964 66.2872H49.4421C49.7479 66.2872 49.9692 66.3457 50.0928 66.469C50.223 66.5924 50.288 66.7806 50.288 67.0273V68.2932L49.1167 68.8385V67.4233ZM55.8452 71.2599C55.8452 71.5131 55.7802 71.6949 55.6565 71.8182C55.5264 71.9416 55.3117 72 55.0058 72H53.0992C52.7998 72 52.5851 71.9416 52.4485 71.8182C52.3183 71.6949 52.2532 71.5066 52.2532 71.2599V66.7417L51.9539 66.2808H53.7629L53.4636 66.7417V70.8639C53.4636 70.9743 53.4961 71.0587 53.5612 71.1301C53.6263 71.2015 53.7239 71.234 53.8605 71.234H54.2705C54.4071 71.234 54.5048 71.2015 54.5698 71.1301C54.6349 71.0587 54.6674 70.9743 54.6674 70.8639V66.7417L54.3681 66.2808H56.1446L55.8452 66.7417V71.2599ZM61.1357 67.5596L60.1205 67.0013H59.9188V71.5456L60.2181 72H58.4156L58.715 71.5456V67.0013H58.5262L57.4981 67.5596V66.2808H61.1422V67.5596H61.1357ZM65.0335 67.4298C65.0335 67.3194 65.001 67.235 64.9359 67.1636C64.8708 67.0922 64.7732 67.0598 64.6366 67.0598H64.2722C64.1355 67.0598 64.0379 67.0922 63.9728 67.1636C63.9077 67.2286 63.8752 67.3194 63.8752 67.4298V67.8907C63.8752 68.0465 63.9012 68.1569 63.9533 68.2348C64.0054 68.3062 64.1095 68.3841 64.2591 68.449L65.8014 69.1696C65.9706 69.2475 66.0877 69.3449 66.1658 69.4617C66.2439 69.5851 66.2829 69.7279 66.2829 69.8902V71.2534C66.2829 71.5066 66.2178 71.6884 66.0877 71.8117C65.9575 71.9351 65.7428 71.9935 65.437 71.9935H63.4718C63.1659 71.9935 62.9512 71.9351 62.8275 71.8117C62.7039 71.6884 62.6388 71.5001 62.6388 71.2534V69.6435L63.8101 70.1823V70.8509C63.8101 70.9613 63.8427 71.0457 63.9077 71.1171C63.9793 71.1885 64.0769 71.221 64.2006 71.221H64.6821C64.8123 71.221 64.9034 71.1885 64.9684 71.1171C65.0335 71.0457 65.066 70.9613 65.066 70.8509V70.3251C65.066 70.1693 65.04 70.059 64.988 69.9875C64.9359 69.9161 64.8383 69.8447 64.6886 69.7733L63.1334 69.0657C62.9642 68.9878 62.8471 68.8904 62.7755 68.7671C62.7039 68.6438 62.6649 68.5009 62.6649 68.3386V67.0208C62.6649 66.7676 62.7299 66.5859 62.8601 66.4625C62.9837 66.3392 63.1985 66.2808 63.4978 66.2808H65.3524C65.6582 66.2808 65.8795 66.3392 66.0031 66.4625C66.1332 66.5859 66.1918 66.7741 66.1918 67.0208V68.5269L65.0205 67.9881V67.4233L65.0335 67.4298ZM70.7924 72.0065C70.5061 72.0065 70.2979 71.9481 70.1742 71.8377C70.0506 71.7273 69.992 71.5521 69.992 71.3248V69.6435C69.992 69.3968 70.0571 69.215 70.1808 69.0982C70.3109 68.9748 70.4996 68.9099 70.7534 68.8904C70.363 68.819 70.1677 68.5788 70.1677 68.1634V66.9754C70.1677 66.7482 70.2328 66.5729 70.3565 66.4625C70.4801 66.3457 70.6883 66.2872 70.9746 66.2872H72.5169C72.8032 66.2872 73.0114 66.3457 73.135 66.4625C73.2587 66.5794 73.3238 66.7482 73.3238 66.9754V68.027C73.3238 68.3451 73.2066 68.5594 72.9789 68.6697H74.02V69.8317L73.4995 69.5461V71.3184C73.4995 71.5456 73.4409 71.7208 73.3107 71.8312C73.1871 71.9416 72.9789 72 72.6926 72H70.7859L70.7924 72.0065ZM71.5278 69.267C71.2935 69.267 71.1764 69.3773 71.1764 69.5915V70.9288C71.1764 71.1496 71.2935 71.2534 71.5278 71.2534H71.9572C72.198 71.2534 72.3216 71.1431 72.3216 70.9288V69.5915C72.3216 69.3708 72.198 69.267 71.9572 69.267H71.5278ZM71.8857 68.5204C72.0093 68.5204 72.0939 68.4944 72.1525 68.4295C72.211 68.3711 72.2371 68.2867 72.2371 68.1828V67.3454C72.2371 67.1247 72.1199 67.0208 71.8857 67.0208H71.6058C71.3716 67.0208 71.2479 67.1247 71.2479 67.3454V68.1828C71.2479 68.2867 71.274 68.3646 71.3325 68.4295C71.3911 68.488 71.4757 68.5204 71.5993 68.5204H71.8792H71.8857ZM79.8701 67.4233C79.8701 67.3129 79.8375 67.2285 79.7725 67.1571C79.7074 67.0857 79.6098 67.0533 79.4796 67.0533H79.1152C78.9786 67.0533 78.881 67.0857 78.8159 67.1571C78.7508 67.2221 78.7183 67.3129 78.7183 67.4233V67.8842C78.7183 68.04 78.7443 68.1504 78.7964 68.2283C78.8484 68.2997 78.9525 68.3776 79.1022 68.4425L80.6444 69.1631C80.8136 69.241 80.9308 69.3384 81.0088 69.4552C81.0869 69.5786 81.126 69.7214 81.126 69.8837V71.2469C81.126 71.5001 81.0609 71.6819 80.9308 71.8052C80.8071 71.9286 80.5859 71.987 80.28 71.987H78.3148C78.009 71.987 77.7942 71.9286 77.6706 71.8052C77.547 71.6819 77.4819 71.4936 77.4819 71.2469V69.637L78.6532 70.1758V70.8445C78.6532 70.9548 78.6857 71.0392 78.7573 71.1106C78.8224 71.182 78.92 71.2145 79.0502 71.2145H79.5317C79.6618 71.2145 79.7529 71.182 79.818 71.1106C79.8831 71.0392 79.9156 70.9548 79.9156 70.8445V70.3186C79.9156 70.1628 79.8896 70.0525 79.8375 69.9811C79.7855 69.9096 79.6879 69.8382 79.5382 69.7668L77.983 69.0592C77.8203 68.9813 77.6966 68.8839 77.6251 68.7606C77.5535 68.6373 77.5144 68.4944 77.5144 68.3321V67.0143C77.5144 66.7611 77.5795 66.5794 77.7031 66.456C77.8333 66.3327 78.0415 66.2743 78.3474 66.2743H80.1954C80.5078 66.2743 80.7225 66.3327 80.8462 66.456C80.9763 66.5794 81.0414 66.7676 81.0414 67.0143V68.5204L79.8701 67.9816V67.4168V67.4233ZM87.0085 72H85.193L85.4858 71.5456V69.5331H84.269V71.5456L84.5748 72H82.7658L83.0651 71.5456V66.7417L82.7658 66.2808H84.5748L84.269 66.7417V68.7606H85.4858V66.7417L85.193 66.2808H87.0085L86.7027 66.7417V71.5456L87.0085 72ZM92.5853 71.5456L92.9236 72H91.0495L91.3098 71.5456L91.1927 70.9029H89.9368L89.8262 71.5456L90.0735 72H88.2514L88.5963 71.5456L89.709 66.2808H91.466L92.5853 71.5456ZM90.0539 70.1239H91.0756L90.5615 67.2156L90.0539 70.1239ZM94.9539 72L93.8607 66.7352L93.5288 66.2743H95.3899L95.1426 66.7352L95.8389 70.9678L96.5287 66.7352L96.2814 66.2743H98.1099L97.765 66.7352L96.6718 72H94.9539ZM100.856 68.7476H101.852L102.411 68.5334V69.7474L101.852 69.5331H100.856V71.221H101.962L102.971 70.7795V71.9935H99.3528L99.6521 71.5391V66.7352L99.3528 66.2743H102.971V67.4947L101.962 67.0533H100.856V68.7476Z" fill="#B48100"/>
<path id="Vector_7" fill-rule="evenodd" clip-rule="evenodd" d="M21.4479 68.1764L2.57031 69.1371L21.4479 70.0979V68.1829V68.1764ZM107.552 68.1764L126.423 69.1371L107.552 70.0979V68.1829V68.1764Z" fill="#B48100"/>
<path id="Vector_8" fill-rule="evenodd" clip-rule="evenodd" d="M9.9431 52.6351C9.9431 53.4011 9.77391 53.9724 9.45505 54.3424C9.1362 54.719 8.62863 54.9592 7.95838 55.0695C8.68069 55.089 9.21429 55.2643 9.57219 55.6213C9.92358 55.9654 10.0863 56.5367 10.0863 57.3157V61.4185C10.0863 62.1715 9.92358 62.7363 9.59821 63.1323C9.27285 63.5283 8.73275 63.7555 7.95838 63.8399C5.30342 64.106 2.64195 64.3982 0 64.7033C0.234262 64.1969 0.47503 63.6841 0.735321 63.1777V48C0.47503 47.5196 0.234262 47.0327 0 46.5523H7.7892C8.55054 46.5523 9.10366 46.7406 9.44204 47.1041C9.77391 47.4677 9.9431 48.026 9.9431 48.779V52.6416V52.6351ZM7.00182 57.7571C7.00182 57.3287 6.90421 56.9781 6.69597 56.7184C6.48123 56.4523 6.14286 56.3419 5.68735 56.3679C5.06916 56.4003 4.45097 56.4393 3.83278 56.4782V61.8729C4.45097 61.8145 5.06916 61.756 5.68735 61.7041C6.13635 61.6651 6.47473 61.5028 6.69597 61.2042C6.90421 60.9121 7.00182 60.5486 7.00182 60.1201V57.7571ZM3.82627 54.0958C4.41843 54.0698 5.0171 54.0438 5.60926 54.0179C6.04525 53.9984 6.38363 53.8426 6.59186 53.5634C6.80009 53.2843 6.91722 52.9272 6.91722 52.4923V50.376C6.91722 49.9475 6.80009 49.597 6.59186 49.3243C6.38363 49.0517 6.05176 48.9218 5.60926 48.9283C5.0171 48.9348 4.42494 48.9413 3.82627 48.9543V54.0958ZM23.5498 61.2886C23.8296 61.6976 24.1159 62.1066 24.4022 62.5091C22.8015 62.6129 21.2137 62.7233 19.6259 62.8337C19.8472 62.3857 20.0619 61.9378 20.2831 61.4899C20.179 60.8861 20.0879 60.2824 20.0033 59.6722C18.9296 59.7371 17.8624 59.8085 16.7887 59.8669C16.6846 60.4966 16.5805 61.1263 16.4894 61.7495C16.6976 62.1715 16.9189 62.6 17.1336 63.0219C15.5719 63.1453 14.0232 63.2751 12.4744 63.4114C12.7607 62.944 13.0536 62.4701 13.3529 61.9962C13.8149 59.393 14.2965 56.7963 14.7585 54.2126C15.2205 51.6419 15.715 49.0841 16.1901 46.5394H20.6801C21.1551 49.0192 21.6367 51.4926 22.1117 53.9529C22.5867 56.4068 23.0617 58.8477 23.5433 61.2756L23.5498 61.2886ZM17.0881 57.6208C17.9535 57.5753 18.819 57.5299 19.678 57.4845C19.4567 56.1147 19.229 54.7384 19.0207 53.3622C18.819 51.9859 18.5847 50.6032 18.3765 49.214C18.1553 50.6097 17.921 52.0054 17.7193 53.4011C17.511 54.8034 17.2898 56.2056 17.0881 57.6143V57.6208ZM32.3997 56.7704C32.276 56.303 32.1068 55.9459 31.9116 55.7187C31.7099 55.485 31.3455 55.3811 30.8444 55.3941C30.6752 55.3941 30.5126 55.4006 30.3499 55.4071V60.9186C30.6102 61.3211 30.864 61.7236 31.1373 62.1261C29.5885 62.2104 28.0398 62.2948 26.5041 62.3857C26.7514 61.9508 27.0051 61.5158 27.2654 61.0809V47.8182C27.0051 47.3963 26.7514 46.9743 26.5041 46.5523H34.3844C35.1587 46.5523 35.6988 46.7211 36.0242 47.0457C36.3561 47.3768 36.5123 47.8702 36.5123 48.5453V52.9662C36.5123 53.5959 36.3951 54.0893 36.1609 54.4528C35.9201 54.8228 35.5297 55.063 35.0026 55.1929C35.3019 56.1082 35.6077 57.0235 35.9071 57.9324C36.1999 58.8477 36.5253 59.7566 36.8376 60.6654C37.189 61.0549 37.5469 61.4444 37.9048 61.8274C36.291 61.8924 34.6967 61.9638 33.0959 62.0352C33.2391 61.6197 33.3823 61.1977 33.5319 60.7823C33.3367 60.1136 33.1285 59.4515 32.9528 58.7828C32.7706 58.1142 32.5819 57.4455 32.3997 56.7769V56.7704ZM33.4343 49.954C33.4343 49.571 33.3302 49.2659 33.109 49.0192C32.9007 48.779 32.5689 48.6557 32.1133 48.6622C31.5212 48.6622 30.929 48.6687 30.3434 48.6752V53.2908C30.9225 53.2778 31.5212 53.2648 32.1133 53.2518C32.5623 53.2453 32.9007 53.109 33.109 52.8688C33.3237 52.6156 33.4343 52.304 33.4343 51.921V49.954ZM50.1775 51.8626C50.1775 52.5313 50.0083 53.0181 49.6895 53.3362C49.3641 53.6543 48.863 53.8491 48.1928 53.927C48.9151 53.9659 49.4422 54.1412 49.7936 54.4528C50.1515 54.7709 50.3207 55.2643 50.3207 55.9524V59.5294C50.3207 60.185 50.1645 60.6719 49.8326 60.9965C49.5073 61.3146 48.9672 61.4899 48.1928 61.5028C45.5248 61.5678 42.8633 61.6457 40.2084 61.7366C40.4557 61.3276 40.7094 60.9121 40.9697 60.4966V47.7663C40.716 47.3638 40.4557 46.9548 40.2084 46.5523H48.0236C48.785 46.5523 49.3381 46.7146 49.6764 47.0327C50.0083 47.3508 50.1775 47.8377 50.1775 48.4934V51.8626ZM47.2362 56.2121C47.2362 55.842 47.1321 55.5434 46.9174 55.3032C46.7091 55.076 46.3773 54.9592 45.9218 54.9657C45.2906 54.9721 44.6724 54.9851 44.0542 54.9916V59.5748C44.6724 59.5618 45.2906 59.5488 45.9218 59.5294C46.3708 59.5229 46.7026 59.393 46.9174 59.1528C47.1321 58.9126 47.2362 58.6075 47.2362 58.2375V56.2056V56.2121ZM44.0542 52.9727C44.6463 52.9727 45.2385 52.9597 45.8437 52.9532C46.2797 52.9532 46.6115 52.8299 46.8198 52.5897C47.028 52.356 47.1451 52.0509 47.1451 51.6743V49.8567C47.1451 49.4866 47.0345 49.175 46.8198 48.9478C46.605 48.7076 46.2797 48.5973 45.8437 48.5973C45.2385 48.5973 44.6463 48.5973 44.0542 48.6037V52.9727ZM57.355 52.9532C58.1945 52.9532 59.0469 52.9467 59.8929 52.9467C60.3549 52.7585 60.8364 52.5767 61.3114 52.3884V55.5175C60.8364 55.3357 60.3549 55.1539 59.8929 54.9721C59.0404 54.9721 58.188 54.9786 57.355 54.9851V59.3671C58.2856 59.3671 59.2226 59.3541 60.1662 59.3476C61.0186 58.9646 61.8711 58.5816 62.7365 58.1986V61.347C59.6521 61.36 56.5807 61.386 53.5157 61.425C53.763 61.029 54.0103 60.6265 54.2641 60.2305V47.7533C54.0038 47.3573 53.763 46.9613 53.5157 46.5653H62.7365V49.7138C61.8711 49.3308 61.0186 48.9543 60.1662 48.5778C59.2226 48.5778 58.2856 48.5778 57.355 48.5778V52.9597V52.9532ZM71.7361 56.3224C71.6059 55.868 71.4433 55.5304 71.235 55.3032C71.0268 55.076 70.6819 54.9592 70.1743 54.9592C70.0051 54.9592 69.836 54.9592 69.6798 54.9592V60.185C69.9401 60.581 70.1939 60.977 70.4541 61.373C68.9054 61.36 67.3697 61.3535 65.8405 61.3535C66.0813 60.964 66.3285 60.568 66.5888 60.172V47.7533C66.335 47.3573 66.0878 46.9613 65.8405 46.5653H73.7208C74.4821 46.5653 75.0353 46.7276 75.3606 47.0457C75.6795 47.3638 75.8487 47.8507 75.8487 48.4999V52.7909C75.8487 53.4011 75.725 53.875 75.4843 54.2191C75.25 54.5632 74.8661 54.7904 74.3195 54.9007C74.6188 55.7966 74.9377 56.686 75.237 57.5818C75.5363 58.4777 75.8552 59.3736 76.1675 60.2694C76.5189 60.6654 76.8768 61.0614 77.2412 61.4574C75.6274 61.4314 74.0136 61.412 72.4193 61.3925C72.5625 61.003 72.7057 60.607 72.8553 60.211C72.6601 59.5618 72.4714 58.9191 72.2892 58.27C72.107 57.6208 71.9183 56.9716 71.7361 56.3289V56.3224ZM72.7707 49.8242C72.7707 49.4542 72.6666 49.1555 72.4519 48.9218C72.2436 48.6946 71.9118 48.5713 71.4433 48.5713C70.8511 48.5713 70.2719 48.5713 69.6863 48.5713V52.9467C70.2654 52.9467 70.8511 52.9467 71.4433 52.9467C71.9053 52.9467 72.2371 52.8299 72.4519 52.6027C72.6666 52.369 72.7707 52.0703 72.7707 51.7003V49.8177V49.8242ZM85.7592 49.5775C85.7592 49.2854 85.6811 49.0517 85.512 48.8764C85.3493 48.6946 85.102 48.6102 84.7506 48.6037C84.4383 48.6037 84.1259 48.6037 83.8201 48.6037C83.4882 48.6037 83.2279 48.6881 83.0587 48.8699C82.9025 49.0452 82.8114 49.2789 82.8114 49.571V50.7915C82.8114 51.1939 82.87 51.4926 83.0067 51.6808C83.1433 51.8756 83.4101 52.0703 83.794 52.2586C85.1085 52.9013 86.423 53.5569 87.7374 54.2061C88.1604 54.4204 88.4728 54.6865 88.668 55.0176C88.8632 55.3487 88.9608 55.7252 88.9608 56.1601V59.789C88.9608 60.4577 88.7981 60.9511 88.4728 61.2562C88.1409 61.5743 87.5813 61.7106 86.8134 61.6911C85.1345 61.6392 83.4557 61.5937 81.7963 61.5483C81.0089 61.5288 80.4493 61.36 80.1304 61.029C79.8181 60.7109 79.6554 60.2175 79.6554 59.5618V55.3552C80.6445 55.8355 81.6401 56.3289 82.6488 56.8093V58.5686C82.6488 58.8542 82.7399 59.0879 82.909 59.2697C83.0782 59.458 83.3385 59.5488 83.6574 59.5553C84.0543 59.5618 84.4708 59.5748 84.8808 59.5813C85.1996 59.5878 85.4534 59.5099 85.6161 59.3346C85.7722 59.1658 85.8568 58.9256 85.8568 58.64V57.2572C85.8568 56.8548 85.7918 56.5561 85.6486 56.3549C85.5185 56.1601 85.2777 55.9589 84.9003 55.7706C83.5728 55.1215 82.2453 54.4853 80.9308 53.8491C80.5079 53.6478 80.2085 53.3817 80.0133 53.0636C79.8181 52.739 79.727 52.369 79.727 51.9405V48.5064C79.727 47.8507 79.8962 47.3638 80.215 47.0457C80.5404 46.7276 81.0935 46.5653 81.8549 46.5653H86.5922C87.3665 46.5653 87.9262 46.7276 88.258 47.0522C88.5834 47.3768 88.7461 47.8767 88.7461 48.5388V52.5312C87.7374 52.0444 86.7483 51.5575 85.7527 51.0706V49.584L85.7592 49.5775ZM102.919 62.4182C101.37 62.3273 99.8214 62.2364 98.2857 62.1585C98.5265 61.756 98.7868 61.3535 99.0471 60.9511V55.4525C97.9994 55.4201 96.9712 55.3941 95.9366 55.3617V60.8017C96.1969 61.2237 96.4572 61.6522 96.724 62.0741C95.1752 62.0027 93.6265 61.9313 92.0908 61.8664C92.3381 61.4704 92.5984 61.0679 92.8521 60.6719V47.7858C92.5984 47.3768 92.3381 46.9678 92.0908 46.5588H96.724C96.4572 46.9743 96.1969 47.3898 95.9366 47.7988V53.2583C96.9712 53.2778 97.9994 53.3038 99.0471 53.3232V47.8053C98.7868 47.3898 98.533 46.9678 98.2857 46.5523H102.919C102.646 46.9743 102.392 47.3963 102.132 47.8182V61.1004C102.392 61.5418 102.646 61.9767 102.919 62.4117V62.4182ZM113.5 46.5588C114.274 46.5588 114.827 46.7341 115.166 47.0977C115.491 47.4547 115.654 48.0065 115.654 48.7466V61.1783C115.654 61.9118 115.491 62.4506 115.166 62.7817C114.834 63.1193 114.274 63.2361 113.5 63.1777C111.808 63.0414 110.122 62.9116 108.431 62.7882C107.656 62.7298 107.11 62.5285 106.778 62.1585C106.452 61.8015 106.29 61.2627 106.29 60.5551V48.6557C106.29 47.9481 106.452 47.4222 106.778 47.0847C107.11 46.7341 107.656 46.5653 108.431 46.5653H113.5V46.5588ZM112.556 49.8696C112.556 49.5515 112.472 49.2984 112.296 49.0971C112.127 48.9024 111.886 48.7985 111.561 48.792C111.157 48.792 110.76 48.7855 110.37 48.779C110.031 48.779 109.778 48.8764 109.621 49.0647C109.459 49.2594 109.374 49.5061 109.374 49.8177V59.5943C109.374 59.9059 109.452 60.1591 109.621 60.3668C109.778 60.568 110.031 60.6914 110.37 60.7109C110.754 60.7368 111.157 60.7693 111.561 60.7888C111.879 60.8082 112.12 60.7238 112.296 60.5421C112.472 60.3538 112.556 60.1071 112.556 59.789V49.8696ZM119.044 46.5588H126.846C127.62 46.5588 128.167 46.7536 128.499 47.1431C128.824 47.5326 129 48.1298 129 48.9218V54.732C129 55.5239 128.824 56.1082 128.499 56.4653C128.167 56.8288 127.62 56.9781 126.846 56.9262C125.519 56.8418 124.204 56.7574 122.883 56.6795V62.6454C123.143 63.1388 123.397 63.6321 123.671 64.1255C122.122 63.9632 120.573 63.8074 119.037 63.6646C119.285 63.2361 119.538 62.8012 119.799 62.3598V47.9351C119.538 47.4742 119.285 47.0198 119.037 46.5588H119.044ZM125.896 50.4799C125.896 50.0384 125.798 49.6684 125.59 49.3892C125.375 49.1036 125.037 48.9608 124.582 48.9543C124.015 48.9543 123.449 48.9413 122.89 48.9283V54.323C123.443 54.3489 124.015 54.3749 124.582 54.4009C125.037 54.4204 125.375 54.3035 125.59 54.0308C125.798 53.7712 125.896 53.4076 125.896 52.9662V50.4734V50.4799Z" fill="#B48100"/>
<g id="Group_2">
<path id="Vector_9" fill-rule="evenodd" clip-rule="evenodd" d="M47.568 20.5074H48.1276L48.4399 20.3906V21.0657L48.1276 20.9489H47.568V21.8967H48.1861L48.7458 21.65V22.3316H46.7285L46.8912 22.0784V19.3909L46.7285 19.1377H48.7458V19.8193L48.1861 19.5726H47.568V20.5204V20.5074ZM50.711 19.7674C50.711 19.7025 50.6914 19.657 50.6589 19.6181C50.6199 19.5791 50.5678 19.5596 50.4897 19.5596H50.288C50.2099 19.5596 50.1578 19.5791 50.1188 19.6181C50.0798 19.657 50.0667 19.7025 50.0667 19.7674V20.027C50.0667 20.1114 50.0798 20.1764 50.1058 20.2153C50.1318 20.2543 50.1904 20.2932 50.2815 20.3322L51.1404 20.7346C51.2315 20.7736 51.3031 20.832 51.3422 20.9034C51.3812 20.9684 51.4072 21.0527 51.4072 21.1436V21.9097C51.4072 22.046 51.3747 22.1499 51.3031 22.2213C51.2315 22.2927 51.1079 22.3251 50.9387 22.3251H49.839C49.6698 22.3251 49.5462 22.2927 49.4746 22.2213C49.403 22.1563 49.3705 22.0525 49.3705 21.9097V21.0073L50.0212 21.3059V21.6824C50.0212 21.7409 50.0407 21.7928 50.0798 21.8318C50.1188 21.8707 50.1709 21.8902 50.2424 21.8902H50.5092C50.5808 21.8902 50.6329 21.8707 50.6719 21.8318C50.7045 21.7928 50.724 21.7474 50.724 21.6824V21.3903C50.724 21.3059 50.711 21.241 50.6784 21.1956C50.6524 21.1501 50.5938 21.1177 50.5157 21.0787L49.6503 20.6827C49.5592 20.6373 49.4941 20.5853 49.4486 20.5139C49.4095 20.4425 49.39 20.3646 49.39 20.2737V19.5402C49.39 19.3973 49.429 19.2935 49.4941 19.2286C49.5657 19.1636 49.6828 19.1247 49.852 19.1247H50.8867C51.0558 19.1247 51.1795 19.1572 51.2511 19.2286C51.3226 19.2935 51.3552 19.4038 51.3552 19.5402V20.3776L50.698 20.079V19.7674H50.711ZM53.9321 19.8388L53.3659 19.5337H53.2553V22.0719L53.4245 22.3251H52.4159L52.5785 22.0719V19.5337H52.4744L51.9018 19.8388V19.1312H53.9386V19.8388H53.9321ZM54.3615 19.1312H56.086C56.2552 19.1312 56.3723 19.1636 56.4439 19.2351C56.5154 19.3 56.5545 19.4103 56.5545 19.5467V21.9097C56.5545 22.046 56.5154 22.1499 56.4439 22.2213C56.3723 22.2927 56.2552 22.3251 56.086 22.3251H54.3615L54.5307 22.0719V19.3844L54.3615 19.1312ZM55.8777 19.8323C55.8777 19.7544 55.8517 19.6895 55.8062 19.6375C55.7606 19.5856 55.689 19.5596 55.5849 19.5596H55.201V21.8902H55.5849C55.6825 21.8902 55.7606 21.8642 55.8062 21.8123C55.8517 21.7603 55.8777 21.7019 55.8777 21.6175V19.8258V19.8323Z" fill="#B48100"/>
<path id="Vector_10" fill-rule="evenodd" clip-rule="evenodd" d="M73.9358 19.1247C74.0985 19.1247 74.2091 19.1572 74.2807 19.2221C74.3523 19.287 74.3848 19.3844 74.3848 19.5077V20.3192C74.3848 20.4101 74.3653 20.4815 74.3263 20.5464C74.2872 20.6113 74.2156 20.6697 74.1245 20.7087L73.3372 21.0657C73.2591 21.1047 73.207 21.1436 73.181 21.1826C73.155 21.2215 73.1419 21.28 73.1419 21.3644V21.9032H73.7601V21.3254L74.3913 21.0333V22.3186H72.4912V21.1566C72.4912 21.0657 72.5107 20.9943 72.5498 20.9229C72.5888 20.858 72.6539 20.8061 72.745 20.7606L73.5389 20.3971C73.617 20.3581 73.669 20.3257 73.7016 20.2867C73.7276 20.2478 73.7406 20.1829 73.7406 20.0985V19.7154C73.7406 19.5921 73.6755 19.5337 73.5389 19.5337H73.3762C73.2395 19.5337 73.1745 19.5921 73.1745 19.7154V20.1114L72.5498 20.4036V19.4947C72.5498 19.3714 72.5823 19.274 72.6474 19.2091C72.7125 19.1442 72.8296 19.1117 72.9923 19.1117H73.9488L73.9358 19.1247ZM75.478 22.3186C75.3154 22.3186 75.2047 22.2862 75.1332 22.2213C75.0616 22.1563 75.029 22.0655 75.029 21.9356V19.5012C75.029 19.3779 75.0616 19.2805 75.1332 19.2156C75.2047 19.1507 75.3154 19.1182 75.478 19.1182H76.4802C76.6428 19.1182 76.7535 19.1507 76.825 19.2156C76.8901 19.2805 76.9292 19.3779 76.9292 19.5012V21.9356C76.9292 22.0655 76.8966 22.1563 76.825 22.2213C76.7535 22.2862 76.6363 22.3186 76.4802 22.3186H75.478ZM76.0767 21.9032C76.2069 21.9032 76.2719 21.8383 76.2719 21.7214V19.7219C76.2719 19.5986 76.2069 19.5402 76.0767 19.5402H75.8815C75.7513 19.5402 75.6798 19.5986 75.6798 19.7219V21.7214C75.6798 21.8447 75.7513 21.9032 75.8815 21.9032H76.0767ZM78.5365 22.3186H77.5474L77.7165 22.072V19.4103L77.5474 19.1766L78.5365 19.1052L78.3738 19.3519V22.0655L78.5365 22.3121V22.3186ZM79.7989 21.7214C79.7989 21.8447 79.8639 21.9032 80.0006 21.9032H80.1958C80.3325 21.9032 80.3975 21.8383 80.3975 21.7214V21.0008H79.5906C79.428 21.0008 79.3173 20.9684 79.2457 20.9034C79.1807 20.8385 79.1481 20.7411 79.1481 20.6113V19.5012C79.1481 19.3779 79.1807 19.2805 79.2457 19.2156C79.3173 19.1507 79.428 19.1182 79.5906 19.1182H80.5993C80.7619 19.1182 80.8791 19.1507 80.9441 19.2156C81.0157 19.2805 81.0483 19.3779 81.0483 19.5012V21.9356C81.0483 22.0655 81.0157 22.1563 80.9441 22.2213C80.8791 22.2862 80.7619 22.3186 80.5993 22.3186H79.6167C79.454 22.3186 79.3434 22.2862 79.2718 22.2213C79.2067 22.1563 79.1677 22.0655 79.1677 21.9356V21.1956L79.7924 21.4877V21.7214H79.7989ZM80.3975 19.7219C80.3975 19.5986 80.326 19.5402 80.1958 19.5402H80.0006C79.8639 19.5402 79.7989 19.5986 79.7989 19.7219V20.3516C79.7989 20.423 79.8184 20.4815 79.8639 20.5269C79.9095 20.5724 79.9746 20.5918 80.0657 20.5918H80.3975V19.7219Z" fill="#B48100"/>
</g>
</g>
<defs>
<clipPath id="clip0_1751_3106">
<rect width="129" height="72" fill="white"/>
</clipPath>
</defs>
</svg>
