<svg width="20" height="23" viewBox="0 0 20 23" fill="none" xmlns="http://www.w3.org/2000/svg">
<g id="Group">
<path id="Vector" d="M18.9047 3.98404H15.2755C14.5907 3.98404 14.0334 3.42678 14.0334 2.742C14.0326 1.23004 12.8026 0 11.2906 0H8.36482C6.85278 0 5.62282 1.23 5.62282 2.742C5.62282 3.42676 5.06556 3.98404 4.38078 3.98404L3.8386 3.98396H0.75C0.33602 3.98396 0 4.31998 0 4.73396C0 5.14794 0.33602 5.48396 0.75 5.48396H1.59672V20.4848C1.59672 21.63 2.52898 22.5624 3.67432 22.5624H15.9795C17.1248 22.5624 18.0571 21.6301 18.0571 20.4848L18.0572 5.48396H18.9039C19.3179 5.48396 19.6539 5.14794 19.6539 4.73396C19.6539 4.31998 19.3187 3.98396 18.9047 3.98396L18.9047 3.98404ZM7.12226 2.74208C7.12226 2.05732 7.67952 1.50004 8.36422 1.50004H11.29C11.9748 1.50004 12.5321 2.0573 12.5321 2.74208C12.5321 3.1913 12.6513 3.60912 12.8433 3.98412H6.8103C7.00296 3.60982 7.12226 3.1913 7.12226 2.74208ZM16.5581 20.4849C16.5581 20.8036 16.2993 21.0624 15.9806 21.0624H3.67456C3.3558 21.0624 3.09706 20.8036 3.09706 20.4849V5.48408H16.5567L16.5566 20.4849H16.5581Z" fill="white"/>
<path id="Vector_2" d="M7.33984 7.13244C6.92586 7.13244 6.58984 7.46846 6.58984 7.88244V18.6636C6.58984 19.0776 6.92586 19.4136 7.33984 19.4136C7.75382 19.4136 8.08984 19.0776 8.08984 18.6636V7.88244C8.08984 7.46846 7.7539 7.13244 7.33984 7.13244Z" fill="white"/>
<path id="Vector_3" d="M12.333 7.13244C11.919 7.13244 11.583 7.46846 11.583 7.88244V18.6636C11.583 19.0776 11.919 19.4136 12.333 19.4136C12.747 19.4136 13.083 19.0776 13.083 18.6636V7.88244C13.083 7.46846 12.7478 7.13244 12.333 7.13244Z" fill="white"/>
</g>
</svg>
